<svg width="28" height="28" viewBox="0 0 28 28" fill="none" xmlns="http://www.w3.org/2000/svg">
<path fill-rule="evenodd" clip-rule="evenodd" d="M3.56555 1.16196C4.74207 0.5625 6.28221 0.5625 9.3625 0.5625H18.6375C21.7178 0.5625 23.2579 0.5625 24.4344 1.16196C25.4693 1.68927 26.3107 2.53066 26.838 3.56555C27.4375 4.74207 27.4375 6.28221 27.4375 9.3625V18.6375C27.4375 21.7178 27.4375 23.2579 26.838 24.4344C26.3107 25.4693 25.4693 26.3107 24.4344 26.838C23.2579 27.4375 21.7178 27.4375 18.6375 27.4375H16V17.25H20.25C20.6642 17.25 21 16.9142 21 16.5C21 16.0858 20.6642 15.75 20.25 15.75H16V12.2C16 11.6276 16.0006 11.2434 16.0248 10.9475C16.0482 10.6604 16.0901 10.5231 16.1362 10.4325C16.2561 10.1973 16.4473 10.0061 16.6825 9.88624C16.7731 9.8401 16.9104 9.79822 17.1975 9.77476C17.4934 9.75058 17.8776 9.75 18.45 9.75H20.25C20.6642 9.75 21 9.41421 21 9C21 8.58579 20.6642 8.25 20.25 8.25H18.45L18.4196 8.25H18.4195C17.8854 8.24999 17.4396 8.24998 17.0753 8.27974C16.6954 8.31078 16.3388 8.37789 16.0015 8.54973C15.4841 8.81338 15.0634 9.23408 14.7997 9.75153C14.6279 10.0888 14.5608 10.4454 14.5297 10.8253C14.5 11.1896 14.5 11.6354 14.5 12.1696V12.2V15.75H11.5C11.0858 15.75 10.75 16.0858 10.75 16.5C10.75 16.9142 11.0858 17.25 11.5 17.25H14.5V27.4375H9.3625C6.28221 27.4375 4.74207 27.4375 3.56555 26.838C2.53066 26.3107 1.68927 25.4693 1.16196 24.4344C0.5625 23.2579 0.5625 21.7178 0.5625 18.6375V9.3625C0.5625 6.28221 0.5625 4.74207 1.16196 3.56555C1.68927 2.53066 2.53066 1.68927 3.56555 1.16196Z" fill="black"/>
</svg>
