<svg width="30" height="31" viewBox="0 0 30 31" fill="none" xmlns="http://www.w3.org/2000/svg">
<path fill-rule="evenodd" clip-rule="evenodd" d="M2.65452 1.91672C3.08234 1.69873 3.6424 1.69873 4.7625 1.69873H25.2375C26.3576 1.69873 26.9177 1.69873 27.3455 1.91672C27.7218 2.10846 28.0278 2.41443 28.2195 2.79075C28.4375 3.21857 28.4375 3.77863 28.4375 4.89873V25.3737C28.4375 26.4938 28.4375 27.0539 28.2195 27.4817C28.0278 27.858 27.7218 28.164 27.3455 28.3557C26.9177 28.5737 26.3576 28.5737 25.2375 28.5737H17V18.3862H21.25C21.6642 18.3862 22 18.0504 22 17.6362C22 17.222 21.6642 16.8862 21.25 16.8862H17V13.3362C17 12.7638 17.0006 12.3796 17.0248 12.0837C17.0482 11.7966 17.0901 11.6593 17.1362 11.5687C17.2561 11.3335 17.4473 11.1423 17.6825 11.0225C17.7731 10.9763 17.9104 10.9344 18.1975 10.911C18.4934 10.8868 18.8776 10.8862 19.45 10.8862H21.25C21.6642 10.8862 22 10.5504 22 10.1362C22 9.72202 21.6642 9.38623 21.25 9.38623H19.45L19.4196 9.38623H19.4195C18.8854 9.38622 18.4396 9.38621 18.0753 9.41597C17.6954 9.44701 17.3388 9.51412 17.0015 9.68596C16.4841 9.94961 16.0634 10.3703 15.7997 10.8878C15.6279 11.225 15.5608 11.5817 15.5297 11.9616C15.5 12.3258 15.5 12.7716 15.5 13.3058V13.3362V16.8862H12.5C12.0858 16.8862 11.75 17.222 11.75 17.6362C11.75 18.0504 12.0858 18.3862 12.5 18.3862H15.5V28.5737H4.7625C3.6424 28.5737 3.08234 28.5737 2.65452 28.3557C2.27819 28.164 1.97223 27.858 1.78049 27.4817C1.5625 27.0539 1.5625 26.4938 1.5625 25.3737V4.89873C1.5625 3.77863 1.5625 3.21857 1.78049 2.79075C1.97223 2.41443 2.27819 2.10846 2.65452 1.91672Z" fill="black"/>
</svg>
