<svg
  width="23"
  height="26"
  viewBox="0 0 23 26"
  fill="none"
  xmlns="http://www.w3.org/2000/svg"
>
    <path
      d="M14.9532 11.8984L3.95581 0.660248L17.9518 8.84663L14.9557 11.8993L14.9532 11.8984ZM1.08128 0C0.753518 0.164473 0.47809 0.420032 0.286786 0.737176C0.0954827 1.05432 -0.00389762 1.42012 0.000116993 1.79235V24.2076C-0.00381955 24.58 0.0956885 24.9458 0.287149 25.263C0.47861 25.5801 0.754214 25.8356 1.08213 26L13.8711 12.9956L1.08128 0ZM22.2747 11.4571L19.3386 9.72492L16.0643 13.0009L19.3386 16.2768L22.3347 14.5447C22.549 14.349 22.7193 14.1086 22.8341 13.8397C22.9488 13.5709 23.0053 13.28 22.9996 12.9869C22.9939 12.6938 22.9262 12.4054 22.8011 12.1413C22.676 11.8773 22.4965 11.6439 22.2747 11.4571ZM3.95581 25.3415L17.9518 17.1551L14.9557 14.1024L3.95581 25.3415Z"
      fill="black"
    />
  </svg>
