<svg width="30" height="31" viewBox="0 0 30 31" fill="none" xmlns="http://www.w3.org/2000/svg">
<path fill-rule="evenodd" clip-rule="evenodd" d="M4.7625 1.69873C3.6424 1.69873 3.08234 1.69873 2.65452 1.91672C2.27819 2.10846 1.97223 2.41443 1.78049 2.79075C1.5625 3.21857 1.5625 3.77863 1.5625 4.89873V25.3737C1.5625 26.4938 1.5625 27.0539 1.78049 27.4817C1.97223 27.858 2.27819 28.164 2.65452 28.3557C3.08234 28.5737 3.6424 28.5737 4.7625 28.5737H25.2375C26.3576 28.5737 26.9177 28.5737 27.3455 28.3557C27.7218 28.164 28.0278 27.858 28.2195 27.4817C28.4375 27.0539 28.4375 26.4938 28.4375 25.3737V4.89873C28.4375 3.77863 28.4375 3.21857 28.2195 2.79075C28.0278 2.41443 27.7218 2.10846 27.3455 1.91672C26.9177 1.69873 26.3576 1.69873 25.2375 1.69873H4.7625ZM9.0625 15.1362C9.0625 11.857 11.7208 9.19873 15 9.19873C18.2792 9.19873 20.9375 11.857 20.9375 15.1362C20.9375 18.4154 18.2792 21.0737 15 21.0737C11.7208 21.0737 9.0625 18.4154 9.0625 15.1362ZM23.125 8.88623C24.1605 8.88623 25 8.04676 25 7.01123C25 5.9757 24.1605 5.13623 23.125 5.13623C22.0895 5.13623 21.25 5.9757 21.25 7.01123C21.25 8.04676 22.0895 8.88623 23.125 8.88623Z" fill="black"/>
</svg>
