<svg width="23" height="28" viewBox="0 0 23 28" fill="none" xmlns="http://www.w3.org/2000/svg">
<g clip-path="url(#clip0_81_6396)">
<path d="M18.6387 14.8052C18.6763 19.0344 22.1942 20.4418 22.2332 20.4598C22.2034 20.559 21.6711 22.4654 20.3798 24.4346C19.2635 26.137 18.105 27.8332 16.2799 27.8684C14.4866 27.9028 13.91 26.7587 11.8597 26.7587C9.81011 26.7587 9.16944 27.8332 7.47188 27.9028C5.71025 27.9724 4.36878 26.0619 3.24323 24.3657C0.943306 20.896 -0.814312 14.5612 1.54572 10.2852C2.71814 8.16164 4.81334 6.81694 7.08749 6.78246C8.81737 6.74803 10.4502 7.99687 11.5077 7.99687C12.5645 7.99687 14.5487 6.49503 16.6346 6.71559C17.5079 6.75352 19.959 7.08367 21.533 9.48773C21.4062 9.56977 18.6082 11.2694 18.6387 14.8052ZM15.2684 4.42011C16.2036 3.23879 16.8331 1.59428 16.6614 -0.0419922C15.3133 0.0145456 13.6831 0.895411 12.7161 2.07608C11.8495 3.12162 11.0906 4.79508 11.2954 6.39897C12.798 6.52028 14.3331 5.60219 15.2684 4.42011Z" fill="white"/>
</g>
<defs>
<clipPath id="clip0_81_6396">
<rect width="23" height="28" fill="white"/>
</clipPath>
</defs>
</svg>
