<svg width="30" height="31" viewBox="0 0 30 31" fill="none" xmlns="http://www.w3.org/2000/svg">
<path d="M8.74121 7.7085L18.8754 21.7328H20.4282L10.4093 7.7085H8.74121Z" fill="black"/>
<path d="M3.56055 1.69629C2.45598 1.69629 1.56055 2.59172 1.56055 3.69629V26.5763C1.56055 27.6809 2.45598 28.5763 3.56055 28.5763H26.4405C27.5451 28.5763 28.4405 27.6809 28.4405 26.5763V3.69629C28.4405 2.59172 27.5451 1.69629 26.4405 1.69629H3.56055ZM18.4311 23.2361L14.0967 17.5745L9.14407 23.2361H6.39111L12.8121 15.8956L6.04055 7.03645H11.71L15.6233 12.212L20.1514 7.03645H22.901L16.8967 13.8976L23.9605 23.235L18.4311 23.2361Z" fill="black"/>
</svg>
