<svg width="146" height="62" fill="none" xmlns="http://www.w3.org/2000/svg"><g clip-path="url(#a)"><path d="M73.492 19.356a6.332 6.332 0 0 0-1.201-2.8 6.29 6.29 0 0 0-2.366-1.908 6.065 6.065 0 0 0-6.083.647 6.118 6.118 0 0 0-1.983 2.483 6.15 6.15 0 0 0-.475 3.147c.094.887.37 1.745.81 2.519a3.52 3.52 0 0 0-2.475 1.038 3.555 3.555 0 0 0-1.034 2.488v1.666c.04.33.198.633.445.853a1.346 1.346 0 0 0 2.235-.853v-.445c0-.468.185-.916.514-1.247a1.75 1.75 0 0 1 1.24-.516h4.435a6.335 6.335 0 0 0 2.12-.388 6.023 6.023 0 0 0 3.106-2.651 6.07 6.07 0 0 0 .712-4.033Zm-6.093 4.127a3.072 3.072 0 0 1-2.255-.942 3.102 3.102 0 0 1-.868-2.294c0-.837.331-1.64.92-2.233a3.135 3.135 0 0 1 4.445 0c.59.592.92 1.396.92 2.233a3.096 3.096 0 0 1-.874 2.315 3.064 3.064 0 0 1-2.288.92ZM77.135 14.899c-.357.073-.676.27-.902.558a1.555 1.555 0 0 0-.332 1.011v8.545a2.642 2.642 0 0 1-.774 1.85 2.616 2.616 0 0 1-1.848.765h-.327c-.328.04-.63.199-.849.447a1.36 1.36 0 0 0 .849 2.246h.964a4.865 4.865 0 0 0 3.449-1.435 4.914 4.914 0 0 0 1.428-3.466V16.37a1.496 1.496 0 0 0-1.04-1.414c-.2-.063-.41-.083-.618-.058ZM121.921 15.287a1.475 1.475 0 0 0-1.063.43 1.495 1.495 0 0 0-.441 1.062v4.514c0 .375-.058.748-.174 1.104a1.604 1.604 0 0 1-1.465 1.163h-6.613a6.167 6.167 0 0 0 .849-4.476 6.262 6.262 0 0 0-3.432-4.417 5.916 5.916 0 0 0-4.55-.233 6.037 6.037 0 0 0-3.173 2.522 6.081 6.081 0 0 0-.875 3.969c.086.948.39 1.863.886 2.674h-6.786a2.731 2.731 0 0 1-1.928-.795 7.28 7.28 0 0 0 .25-3.875 5.822 5.822 0 0 0-1.534-2.98 5.776 5.776 0 0 0-2.919-1.63 6.08 6.08 0 0 0-5.603 1.242 6.14 6.14 0 0 0-1.72 2.418 6.17 6.17 0 0 0-.388 2.946 5.946 5.946 0 0 0 1.128 3.02 5.903 5.903 0 0 0 2.535 1.979c.334.147.683.257 1.04.33a7.005 7.005 0 0 0 2.122.135c-.411.49-.849.955-1.311 1.395l-.463.426a1.433 1.433 0 0 0-.376 1.547 1.434 1.434 0 0 0 .738.808 1.42 1.42 0 0 0 1.566-.243l.54-.504a16.074 16.074 0 0 0 3.47-4.65c.414.451.94.785 1.523.969.451.166.927.258 1.407.271h23.694a4.113 4.113 0 0 0 2.967-.922 4.153 4.153 0 0 0 1.487-2.74c.07-.377.102-.76.096-1.143V16.78a1.466 1.466 0 0 0-.429-1.061 1.461 1.461 0 0 0-1.055-.431Zm-34.568 8.195a3.192 3.192 0 0 1-2.263-.942 3.224 3.224 0 0 1 0-4.548 3.192 3.192 0 0 1 3.484-.698 3.064 3.064 0 0 1 1.68 1.774c.145.395.208.816.184 1.237a3.114 3.114 0 0 1-.876 2.242 3.084 3.084 0 0 1-2.209.935Zm19.607 0a3.067 3.067 0 0 1-2.281-.926 3.118 3.118 0 0 1-.881-2.309c0-.838.331-1.641.921-2.233a3.133 3.133 0 0 1 4.444 0c.589.592.92 1.395.92 2.233a3.08 3.08 0 0 1-1.895 3.005c-.389.16-.807.239-1.228.23ZM144.516 15.287a1.477 1.477 0 0 0-1.063.43 1.495 1.495 0 0 0-.441 1.062v4.708a3.58 3.58 0 0 1-.193 1.105 1.587 1.587 0 0 1-1.465 1.162h-3.239c-.25.03-.502.03-.752 0v2.79c.278.067.562.106.848.116h3.239a4.112 4.112 0 0 0 2.967-.922 4.153 4.153 0 0 0 1.487-2.74c.028-.38.028-.762 0-1.143V16.78a1.5 1.5 0 0 0-.401-1.022 1.48 1.48 0 0 0-.987-.47ZM135.705 21.738v-9.145a1.517 1.517 0 0 0-.447-1.056 1.5 1.5 0 0 0-1.057-.435 1.48 1.48 0 0 0-1.049.437c-.279.28-.435.659-.435 1.054v8.855c.001.394-.057.786-.174 1.162a1.7 1.7 0 0 1-1.6 1.163h-1.311V13.194c0-.396-.156-.775-.435-1.055a1.48 1.48 0 0 0-2.099 0c-.278.28-.435.66-.435 1.055v10.579h-.27a1.303 1.303 0 0 0-.927.386 1.331 1.331 0 0 0-.384.931 1.321 1.321 0 0 0 .81 1.218c.159.066.329.1.501.1h5.784a3.151 3.151 0 0 0 2.699-1.511c.054.085.118.164.193.232.437.55 1.028.955 1.696 1.163l.559.155v-2.79a2.026 2.026 0 0 1-1.619-1.919ZM106.979 13.543c.357-.042.687-.214.926-.483a1.478 1.478 0 0 0 0-1.96 1.463 1.463 0 0 0-2.559.98 1.487 1.487 0 0 0 .49 1.1 1.469 1.469 0 0 0 1.143.363ZM121.959 11.101a1.463 1.463 0 0 0-.926.483 1.477 1.477 0 0 0 0 1.96 1.463 1.463 0 0 0 2.559-.98 1.487 1.487 0 0 0-.49-1.099 1.46 1.46 0 0 0-1.143-.364ZM143.802 27.978c-.383 0-.751.153-1.022.425a1.458 1.458 0 0 0-.424 1.028 1.467 1.467 0 0 0 1.747 1.464 1.469 1.469 0 0 0 1.156-1.163 1.473 1.473 0 0 0-1.457-1.754ZM118.238 14.028a1.463 1.463 0 0 0 1.368-.896c.113-.268.145-.565.091-.852a1.467 1.467 0 0 0-1.996-1.087 1.47 1.47 0 0 0-.909 1.362 1.461 1.461 0 0 0 .888 1.36c.177.075.367.113.558.113ZM145.981 42.916a3.899 3.899 0 0 0-1.217-2.833 3.852 3.852 0 0 0-2.89-1.042 4.231 4.231 0 0 0-3.162 1.724 4.089 4.089 0 0 0-6.574-.194v-.27c0-.345-.136-.675-.378-.919a1.288 1.288 0 0 0-1.827 0 1.302 1.302 0 0 0-.378.918v9.048c0 .386.152.755.423 1.028a1.444 1.444 0 0 0 2.469-1.028v-5.134a4.193 4.193 0 0 1 .405-1.608 1.926 1.926 0 0 1 1.928-.93c.713.116 1.137.64 1.272 1.53.029.335.029.673 0 1.008v5.096c-.024.206-.004.415.059.612a1.461 1.461 0 0 0 .797.9 1.463 1.463 0 0 0 1.996-.9c.063-.197.083-.406.059-.612v-4.515c-.01-.487.029-.974.116-1.453.063-.497.315-.95.703-1.264a1.92 1.92 0 0 1 1.379-.422c.925 0 1.484.62 1.542 1.822v5.812c.005.382.16.747.43 1.015.271.268.636.419 1.016.419.382-.005.747-.16 1.017-.431.27-.272.424-.639.429-1.022l.386-6.355ZM65.587 39.06a5.431 5.431 0 0 0-4.511 1.24c0-.325-.127-.638-.355-.87a1.23 1.23 0 0 0-.86-.37c-.327 0-.64.13-.872.363a1.243 1.243 0 0 0-.362.877V53.05c.042.369.218.71.493.957a1.5 1.5 0 0 0 2.003 0c.276-.248.45-.588.493-.957v-3.12a5.856 5.856 0 0 0 7.711-1.394 6.28 6.28 0 0 0-.327-7.75 5.581 5.581 0 0 0-3.413-1.725Zm-1.214 8.855a2.879 2.879 0 0 1-2.165-.87 2.911 2.911 0 0 1-.824-2.192 3.034 3.034 0 0 1 .527-1.67 3.01 3.01 0 0 1 1.36-1.096 2.993 2.993 0 0 1 3.267.689 3.027 3.027 0 0 1 .623 3.295 3.02 3.02 0 0 1-1.116 1.346 2.997 2.997 0 0 1-1.672.498ZM88.163 38.983a1.25 1.25 0 0 0-.886.369 1.263 1.263 0 0 0-.367.89 5.765 5.765 0 0 0-7.712.369 6.204 6.204 0 0 0-.675 7.595 5.438 5.438 0 0 0 3.085 2.266 5.602 5.602 0 0 0 5.302-1.046 1.303 1.303 0 0 0 .751 1.342 1.287 1.287 0 0 0 1.765-.799c.054-.175.07-.36.048-.543v-9.184a1.264 1.264 0 0 0-.814-1.18 1.248 1.248 0 0 0-.497-.079Zm-4.685 8.932a3.034 3.034 0 0 1-1.716-.48 3.074 3.074 0 0 1-.528-4.73 3.041 3.041 0 0 1 3.341-.675 3.05 3.05 0 0 1 1.372 1.143c.334.51.508 1.109.5 1.72a2.918 2.918 0 0 1-.831 2.158 2.892 2.892 0 0 1-2.138.864ZM113.63 38.983a5.763 5.763 0 0 0-3.141 1.073 5.812 5.812 0 0 0-2.037 2.632 5.84 5.84 0 0 0 1.335 6.246 5.777 5.777 0 0 0 2.934 1.559c1.108.22 2.256.11 3.302-.318a5.785 5.785 0 0 0 2.586-2.09 5.831 5.831 0 0 0-.709-7.437 5.77 5.77 0 0 0-4.27-1.666Zm0 8.931a2.799 2.799 0 0 1-2.141-.926 2.828 2.828 0 0 1-.712-2.232 2.876 2.876 0 0 1 1.823-2.754 2.841 2.841 0 0 1 1.146-.19 2.896 2.896 0 0 1 2.145.937 2.924 2.924 0 0 1 .766 2.22 2.87 2.87 0 0 1-1.916 2.798 2.842 2.842 0 0 1-1.188.147h.077ZM73.954 34.604a1.419 1.419 0 0 0-1.028.42 1.435 1.435 0 0 0-.418 1.033v13.272c0 .385.153.755.424 1.027a1.443 1.443 0 0 0 2.045 0c.271-.272.423-.642.423-1.027V36.057c0-.386-.152-.755-.423-1.028a1.442 1.442 0 0 0-1.023-.425ZM126.933 39.002h-.636a3.696 3.696 0 0 0-2.429 1.357v-.233a1.196 1.196 0 0 0-2.041-.85c-.224.226-.35.531-.35.85v9.126c0 .39.154.765.429 1.04a1.463 1.463 0 0 0 2.501-1.04v-5.096c0-1.608.733-2.267 2.314-2.286h.212c.378 0 .741-.151 1.009-.42a1.44 1.44 0 0 0 0-2.028 1.425 1.425 0 0 0-1.009-.42ZM105.842 38.982h-1.812v-.852c0-.814.597-1.182 1.523-1.26h.173a1.25 1.25 0 0 0 1.234-.852 1.285 1.285 0 0 0-.599-1.554 1.266 1.266 0 0 0-.577-.151h-.328a6.834 6.834 0 0 0-2.487.387 3.318 3.318 0 0 0-1.419 1.253 3.351 3.351 0 0 0-.509 1.828V39h-5.398v-1.046a1.497 1.497 0 0 0-.319-.942 1.484 1.484 0 0 0-.837-.53 1.44 1.44 0 0 0-1.593.794 1.46 1.46 0 0 0-.143.62v1.085h-.886a1.247 1.247 0 0 0-1.298.732 1.265 1.265 0 0 0 .313 1.462 1.251 1.251 0 0 0 .985.305h.886v5.813c-.008.65.17 1.29.51 1.843.343.553.834.995 1.418 1.276.828.3 1.705.438 2.584.407a1.46 1.46 0 0 0 1.253-.775 1.361 1.361 0 0 0-.616-1.796 1.343 1.343 0 0 0-.676-.141c-.945 0-1.523-.446-1.562-1.298V41.48h5.399v7.75a1.493 1.493 0 0 0 1.156 1.473 1.437 1.437 0 0 0 1.2-.295 1.458 1.458 0 0 0 .536-1.12v-7.75h1.812a1.25 1.25 0 0 0 1.297-.731 1.266 1.266 0 0 0-.313-1.462 1.254 1.254 0 0 0-.984-.306l.077-.058ZM5.957 61.98a5.996 5.996 0 0 1-3.663-1.22 5.591 5.591 0 0 1-1.676-1.964A5.622 5.622 0 0 1 0 56.284v-38.4c.002-.92.23-1.823.664-2.63a5.55 5.55 0 0 1 1.823-2.002 6.095 6.095 0 0 1 5.379-.775L26.817 18.6a5.669 5.669 0 0 1 2.91 2.033 5.715 5.715 0 0 1 1.139 3.373V51.75a5.83 5.83 0 0 1-1.3 3.563 5.78 5.78 0 0 1-3.212 1.997l-18.95 4.515c-.475.108-.96.16-1.447.155Zm0-47.178a3.17 3.17 0 0 0-1.928.582 2.98 2.98 0 0 0-1.253 2.5v38.4a3.054 3.054 0 0 0 1.215 2.422 3.29 3.29 0 0 0 2.737.543l18.952-4.515a3.101 3.101 0 0 0 1.728-1.07c.44-.54.687-1.215.7-1.913V24.006a3.09 3.09 0 0 0-.616-1.811 3.066 3.066 0 0 0-1.562-1.096L6.98 14.977a3.84 3.84 0 0 0-1.022-.155v-.02Z" fill="#2C2B7C"/><path d="M14.44 54.715a6.072 6.072 0 0 1-3.644-1.22 5.553 5.553 0 0 1-1.684-1.97A5.582 5.582 0 0 1 8.502 49V10.599a5.583 5.583 0 0 1 .66-2.641 5.55 5.55 0 0 1 1.827-2.01 6.151 6.151 0 0 1 5.379-.774l18.951 6.122a5.786 5.786 0 0 1 2.893 2.058 5.832 5.832 0 0 1 1.156 3.367v27.823a5.83 5.83 0 0 1-1.306 3.551 5.78 5.78 0 0 1-3.206 1.99l-18.95 4.456c-.48.115-.973.174-1.466.174Zm0-47.197a3.266 3.266 0 0 0-1.928.581 3.038 3.038 0 0 0-1.253 2.5v38.4a3.033 3.033 0 0 0 1.234 2.403 3.29 3.29 0 0 0 2.737.562l18.952-4.534a3.063 3.063 0 0 0 1.707-1.024 3.09 3.09 0 0 0 .722-1.862V16.72a3.091 3.091 0 0 0-.632-1.82 3.065 3.065 0 0 0-1.585-1.086L15.48 7.73a3.264 3.264 0 0 0-1.041-.213Z" fill="#00B6FF"/><path d="M22.826 46.675a6.053 6.053 0 0 1-3.643-1.202 5.593 5.593 0 0 1-1.685-1.981 5.623 5.623 0 0 1-.61-2.533V5.793a5.603 5.603 0 0 1 .631-2.665 5.57 5.57 0 0 1 1.818-2.043A6.112 6.112 0 0 1 24.754.31l18.952 6.123a5.785 5.785 0 0 1 2.899 2.045 5.83 5.83 0 0 1 1.169 3.36v24.607A5.83 5.83 0 0 1 46.46 40a5.78 5.78 0 0 1-3.217 1.985l-18.99 4.495c-.466.12-.945.185-1.427.194Zm0-44.02a3.227 3.227 0 0 0-1.927.58 2.98 2.98 0 0 0-1.273 2.558V40.96a2.997 2.997 0 0 0 1.273 2.422 3.27 3.27 0 0 0 2.737.562l18.951-4.534a3.044 3.044 0 0 0 1.723-1.057 3.07 3.07 0 0 0 .687-1.907V11.838a3.052 3.052 0 0 0-.607-1.8c-.388-.52-.932-.9-1.552-1.087L23.848 2.83a3.262 3.262 0 0 0-1.021-.174Z" fill="#00F3FF"/></g><defs><clipPath id="a"><path fill="#fff" d="M0 0h146v62H0z"/></clipPath></defs></svg>